<svg width="36" height="36" viewBox="0 0 36 36" fill="none" xmlns="http://www.w3.org/2000/svg">
<path d="M17.9998 16.65C13.9138 16.65 13.0858 10.458 13.0858 10.458C12.5998 7.23598 14.0758 3.59998 17.9458 3.59998C21.8338 3.59998 23.3098 7.23598 22.8238 10.458C22.8238 10.458 22.0858 16.65 17.9998 16.65ZM17.9998 21.276L22.8958 18C27.1978 18 31.0318 22.194 31.0318 26.154V30.636C31.0318 30.636 24.4618 32.67 17.9998 32.67C11.4298 32.67 4.96777 30.636 4.96777 30.636V26.154C4.96777 22.104 8.45977 18.09 13.0138 18.09L17.9998 21.276Z" fill="black"/>
</svg>
